<?xml version="1.0" encoding="UTF-8"?><svg xmlns="http://www.w3.org/2000/svg" width="640" height="352" viewBox="0 0 640 352"><rect width="640" height="352" fill="#1e1e1e"/><rect x="8" y="16" width="232" height="16" fill="rgb(187,173,160)"/><rect x="8" y="32" width="8" height="16" fill="rgb(187,173,160)"/><rect x="16" y="32" width="48" height="16" fill="rgb(205,193,180)"/><rect x="64" y="32" width="8" height="16" fill="rgb(187,173,160)"/><rect x="72" y="32" width="48" height="16" fill="rgb(205,193,180)"/><rect x="120" y="32" width="8" height="16" fill="rgb(187,173,160)"/><rect x="128" y="32" width="48" height="16" fill="rgb(205,193,180)"/><rect x="176" y="32" width="8" height="16" fill="rgb(187,173,160)"/><rect x="184" y="32" width="48" height="16" fill="rgb(205,193,180)"/><rect x="232" y="32" width="8" height="16" fill="rgb(187,173,160)"/><rect x="8" y="48" width="8" height="16" fill="rgb(187,173,160)"/><rect x="16" y="48" width="48" height="16" fill="rgb(205,193,180)"/><rect x="64" y="48" width="8" height="16" fill="rgb(187,173,160)"/><rect x="72" y="48" width="48" height="16" fill="rgb(205,193,180)"/><rect x="120" y="48" width="8" height="16" fill="rgb(187,173,160)"/><rect x="128" y="48" width="48" height="16" fill="rgb(205,193,180)"/><rect x="176" y="48" width="8" height="16" fill="rgb(187,173,160)"/><rect x="184" y="48" width="48" height="16" fill="rgb(205,193,180)"/><rect x="232" y="48" width="8" height="16" fill="rgb(187,173,160)"/><rect x="8" y="64" width="8" height="16" fill="rgb(187,173,160)"/><rect x="16" y="64" width="48" height="16" fill="rgb(205,193,180)"/><rect x="64" y="64" width="8" height="16" fill="rgb(187,173,160)"/><rect x="72" y="64" width="48" height="16" fill="rgb(205,193,180)"/><rect x="120" y="64" width="8" height="16" fill="rgb(187,173,160)"/><rect x="128" y="64" width="48" height="16" fill="rgb(205,193,180)"/><rect x="176" y="64" width="8" height="16" fill="rgb(187,173,160)"/><rect x="184" y="64" width="48" height="16" fill="rgb(205,193,180)"/><rect x="232" y="64" width="8" height="16" fill="rgb(187,173,160)"/><rect x="8" y="80" width="232" height="16" fill="rgb(187,173,160)"/><rect x="8" y="96" width="8" height="16" fill="rgb(187,173,160)"/><rect x="16" y="96" width="48" height="16" fill="rgb(237,224,200)"/><rect x="64" y="96" width="8" height="16" fill="rgb(187,173,160)"/><rect x="72" y="96" width="48" height="16" fill="rgb(238,228,218)"/><rect x="120" y="96" width="8" height="16" fill="rgb(187,173,160)"/><rect x="128" y="96" width="48" height="16" fill="rgb(205,193,180)"/><rect x="176" y="96" width="8" height="16" fill="rgb(187,173,160)"/><rect x="184" y="96" width="48" height="16" fill="rgb(205,193,180)"/><rect x="232" y="96" width="8" height="16" fill="rgb(187,173,160)"/><rect x="8" y="112" width="8" height="16" fill="rgb(187,173,160)"/><rect x="16" y="112" width="48" height="16" fill="rgb(237,224,200)"/><rect x="64" y="112" width="8" height="16" fill="rgb(187,173,160)"/><rect x="72" y="112" width="48" height="16" fill="rgb(238,228,218)"/><rect x="120" y="112" width="8" height="16" fill="rgb(187,173,160)"/><rect x="128" y="112" width="48" height="16" fill="rgb(205,193,180)"/><rect x="176" y="112" width="8" height="16" fill="rgb(187,173,160)"/><rect x="184" y="112" width="48" height="16" fill="rgb(205,193,180)"/><rect x="232" y="112" width="8" height="16" fill="rgb(187,173,160)"/><rect x="8" y="128" width="8" height="16" fill="rgb(187,173,160)"/><rect x="16" y="128" width="48" height="16" fill="rgb(237,224,200)"/><rect x="64" y="128" width="8" height="16" fill="rgb(187,173,160)"/><rect x="72" y="128" width="48" height="16" fill="rgb(238,228,218)"/><rect x="120" y="128" width="8" height="16" fill="rgb(187,173,160)"/><rect x="128" y="128" width="48" height="16" fill="rgb(205,193,180)"/><rect x="176" y="128" width="8" height="16" fill="rgb(187,173,160)"/><rect x="184" y="128" width="48" height="16" fill="rgb(205,193,180)"/><rect x="232" y="128" width="8" height="16" fill="rgb(187,173,160)"/><rect x="8" y="144" width="232" height="16" fill="rgb(187,173,160)"/><rect x="8" y="160" width="8" height="16" fill="rgb(187,173,160)"/><rect x="16" y="160" width="48" height="16" fill="rgb(242,177,121)"/><rect x="64" y="160" width="8" height="16" fill="rgb(187,173,160)"/><rect x="72" y="160" width="48" height="16" fill="rgb(245,149,99)"/><rect x="120" y="160" width="8" height="16" fill="rgb(187,173,160)"/><rect x="128" y="160" width="48" height="16" fill="rgb(238,228,218)"/><rect x="176" y="160" width="8" height="16" fill="rgb(187,173,160)"/><rect x="184" y="160" width="48" height="16" fill="rgb(237,224,200)"/><rect x="232" y="160" width="8" height="16" fill="rgb(187,173,160)"/><rect x="8" y="176" width="8" height="16" fill="rgb(187,173,160)"/><rect x="16" y="176" width="48" height="16" fill="rgb(242,177,121)"/><rect x="64" y="176" width="8" height="16" fill="rgb(187,173,160)"/><rect x="72" y="176" width="48" height="16" fill="rgb(245,149,99)"/><rect x="120" y="176" width="8" height="16" fill="rgb(187,173,160)"/><rect x="128" y="176" width="48" height="16" fill="rgb(238,228,218)"/><rect x="176" y="176" width="8" height="16" fill="rgb(187,173,160)"/><rect x="184" y="176" width="48" height="16" fill="rgb(237,224,200)"/><rect x="232" y="176" width="8" height="16" fill="rgb(187,173,160)"/><rect x="8" y="192" width="8" height="16" fill="rgb(187,173,160)"/><rect x="16" y="192" width="48" height="16" fill="rgb(242,177,121)"/><rect x="64" y="192" width="8" height="16" fill="rgb(187,173,160)"/><rect x="72" y="192" width="48" height="16" fill="rgb(245,149,99)"/><rect x="120" y="192" width="8" height="16" fill="rgb(187,173,160)"/><rect x="128" y="192" width="48" height="16" fill="rgb(238,228,218)"/><rect x="176" y="192" width="8" height="16" fill="rgb(187,173,160)"/><rect x="184" y="192" width="48" height="16" fill="rgb(237,224,200)"/><rect x="232" y="192" width="8" height="16" fill="rgb(187,173,160)"/><rect x="8" y="208" width="232" height="16" fill="rgb(187,173,160)"/><rect x="8" y="224" width="8" height="16" fill="rgb(187,173,160)"/><rect x="16" y="224" width="48" height="16" fill="rgb(237,194,46)"/><rect x="64" y="224" width="8" height="16" fill="rgb(187,173,160)"/><rect x="72" y="224" width="48" height="16" fill="rgb(237,207,114)"/><rect x="120" y="224" width="8" height="16" fill="rgb(187,173,160)"/><rect x="128" y="224" width="48" height="16" fill="rgb(237,224,200)"/><rect x="176" y="224" width="8" height="16" fill="rgb(187,173,160)"/><rect x="184" y="224" width="48" height="16" fill="rgb(205,193,180)"/><rect x="232" y="224" width="8" height="16" fill="rgb(187,173,160)"/><rect x="8" y="240" width="8" height="16" fill="rgb(187,173,160)"/><rect x="16" y="240" width="48" height="16" fill="rgb(237,194,46)"/><rect x="64" y="240" width="8" height="16" fill="rgb(187,173,160)"/><rect x="72" y="240" width="48" height="16" fill="rgb(237,207,114)"/><rect x="120" y="240" width="8" height="16" fill="rgb(187,173,160)"/><rect x="128" y="240" width="48" height="16" fill="rgb(237,224,200)"/><rect x="176" y="240" width="8" height="16" fill="rgb(187,173,160)"/><rect x="184" y="240" width="48" height="16" fill="rgb(205,193,180)"/><rect x="232" y="240" width="8" height="16" fill="rgb(187,173,160)"/><rect x="8" y="256" width="8" height="16" fill="rgb(187,173,160)"/><rect x="16" y="256" width="48" height="16" fill="rgb(237,194,46)"/><rect x="64" y="256" width="8" height="16" fill="rgb(187,173,160)"/><rect x="72" y="256" width="48" height="16" fill="rgb(237,207,114)"/><rect x="120" y="256" width="8" height="16" fill="rgb(187,173,160)"/><rect x="128" y="256" width="48" height="16" fill="rgb(237,224,200)"/><rect x="176" y="256" width="8" height="16" fill="rgb(187,173,160)"/><rect x="184" y="256" width="48" height="16" fill="rgb(205,193,180)"/><rect x="232" y="256" width="8" height="16" fill="rgb(187,173,160)"/><rect x="8" y="272" width="232" height="16" fill="rgb(187,173,160)"/><text x="0" y="14" font-family="ui-monospace, SFMono-Regular, Menlo, Consolas, 'DejaVu Sans Mono', monospace" font-size="13" fill="#d0d0d0" textLength="640" lengthAdjust="spacing" xml:space="preserve">╭2048─────────────────────────╮  ╭Score─────────────────╮                       </text><text x="0" y="30" font-family="ui-monospace, SFMono-Regular, Menlo, Consolas, 'DejaVu Sans Mono', monospace" font-size="13" fill="#d0d0d0" textLength="272" lengthAdjust="spacing" xml:space="preserve">│                             │  │</text><text x="272" y="30" font-family="ui-monospace, SFMono-Regular, Menlo, Consolas, 'DejaVu Sans Mono', monospace" font-size="13" fill="#d0d0d0" textLength="40" lengthAdjust="spacing" xml:space="preserve" font-weight="bold">20904</text><text x="312" y="30" font-family="ui-monospace, SFMono-Regular, Menlo, Consolas, 'DejaVu Sans Mono', monospace" font-size="13" fill="#d0d0d0" textLength="328" lengthAdjust="spacing" xml:space="preserve">                 │                       </text><text x="0" y="46" font-family="ui-monospace, SFMono-Regular, Menlo, Consolas, 'DejaVu Sans Mono', monospace" font-size="13" fill="#d0d0d0" textLength="640" lengthAdjust="spacing" xml:space="preserve">│                             │  │best 2048 · 1001 moves│                       </text><text x="0" y="62" font-family="ui-monospace, SFMono-Regular, Menlo, Consolas, 'DejaVu Sans Mono', monospace" font-size="13" fill="#d0d0d0" textLength="16" lengthAdjust="spacing" xml:space="preserve">│ </text><text x="232" y="62" font-family="ui-monospace, SFMono-Regular, Menlo, Consolas, 'DejaVu Sans Mono', monospace" font-size="13" fill="#d0d0d0" textLength="408" lengthAdjust="spacing" xml:space="preserve"> │  ╰──────────────────────╯                       </text><text x="0" y="78" font-family="ui-monospace, SFMono-Regular, Menlo, Consolas, 'DejaVu Sans Mono', monospace" font-size="13" fill="#d0d0d0" textLength="640" lengthAdjust="spacing" xml:space="preserve">│                             │                                                 </text><text x="0" y="94" font-family="ui-monospace, SFMono-Regular, Menlo, Consolas, 'DejaVu Sans Mono', monospace" font-size="13" fill="#d0d0d0" textLength="640" lengthAdjust="spacing" xml:space="preserve">│                             │  ╭Score curve───────────╮                       </text><text x="0" y="110" font-family="ui-monospace, SFMono-Regular, Menlo, Consolas, 'DejaVu Sans Mono', monospace" font-size="13" fill="#d0d0d0" textLength="272" lengthAdjust="spacing" xml:space="preserve">│                             │  │</text><text x="272" y="110" font-family="ui-monospace, SFMono-Regular, Menlo, Consolas, 'DejaVu Sans Mono', monospace" font-size="13" fill="rgb(0,122,204)" textLength="160" lengthAdjust="spacing" xml:space="preserve">   ▁▁▂▂▂▂▃▃▄▄▅▅▅▆▆▆█</text><text x="432" y="110" font-family="ui-monospace, SFMono-Regular, Menlo, Consolas, 'DejaVu Sans Mono', monospace" font-size="13" fill="#d0d0d0" textLength="208" lengthAdjust="spacing" xml:space="preserve">  │                       </text><text x="0" y="126" font-family="ui-monospace, SFMono-Regular, Menlo, Consolas, 'DejaVu Sans Mono', monospace" font-size="13" fill="#d0d0d0" textLength="16" lengthAdjust="spacing" xml:space="preserve">│ </text><text x="16" y="126" font-family="ui-monospace, SFMono-Regular, Menlo, Consolas, 'DejaVu Sans Mono', monospace" font-size="13" fill="rgb(119,110,101)" textLength="48" lengthAdjust="spacing" xml:space="preserve" font-weight="bold">  4   </text><text x="72" y="126" font-family="ui-monospace, SFMono-Regular, Menlo, Consolas, 'DejaVu Sans Mono', monospace" font-size="13" fill="rgb(119,110,101)" textLength="48" lengthAdjust="spacing" xml:space="preserve" font-weight="bold">  2   </text><text x="232" y="126" font-family="ui-monospace, SFMono-Regular, Menlo, Consolas, 'DejaVu Sans Mono', monospace" font-size="13" fill="#d0d0d0" textLength="408" lengthAdjust="spacing" xml:space="preserve"> │  │                      │                       </text><text x="0" y="142" font-family="ui-monospace, SFMono-Regular, Menlo, Consolas, 'DejaVu Sans Mono', monospace" font-size="13" fill="#d0d0d0" textLength="640" lengthAdjust="spacing" xml:space="preserve">│                             │  │                      │                       </text><text x="0" y="158" font-family="ui-monospace, SFMono-Regular, Menlo, Consolas, 'DejaVu Sans Mono', monospace" font-size="13" fill="#d0d0d0" textLength="640" lengthAdjust="spacing" xml:space="preserve">│                             │  ╰──────────────────────╯                       </text><text x="0" y="174" font-family="ui-monospace, SFMono-Regular, Menlo, Consolas, 'DejaVu Sans Mono', monospace" font-size="13" fill="#d0d0d0" textLength="640" lengthAdjust="spacing" xml:space="preserve">│                             │                                                 </text><text x="0" y="190" font-family="ui-monospace, SFMono-Regular, Menlo, Consolas, 'DejaVu Sans Mono', monospace" font-size="13" fill="#d0d0d0" textLength="16" lengthAdjust="spacing" xml:space="preserve">│ </text><text x="16" y="190" font-family="ui-monospace, SFMono-Regular, Menlo, Consolas, 'DejaVu Sans Mono', monospace" font-size="13" fill="rgb(249,246,242)" textLength="48" lengthAdjust="spacing" xml:space="preserve" font-weight="bold">  8   </text><text x="72" y="190" font-family="ui-monospace, SFMono-Regular, Menlo, Consolas, 'DejaVu Sans Mono', monospace" font-size="13" fill="rgb(249,246,242)" textLength="48" lengthAdjust="spacing" xml:space="preserve" font-weight="bold">  16  </text><text x="128" y="190" font-family="ui-monospace, SFMono-Regular, Menlo, Consolas, 'DejaVu Sans Mono', monospace" font-size="13" fill="rgb(119,110,101)" textLength="48" lengthAdjust="spacing" xml:space="preserve" font-weight="bold">  2   </text><text x="184" y="190" font-family="ui-monospace, SFMono-Regular, Menlo, Consolas, 'DejaVu Sans Mono', monospace" font-size="13" fill="rgb(119,110,101)" textLength="48" lengthAdjust="spacing" xml:space="preserve" font-weight="bold">  4   </text><text x="232" y="190" font-family="ui-monospace, SFMono-Regular, Menlo, Consolas, 'DejaVu Sans Mono', monospace" font-size="13" fill="#d0d0d0" textLength="408" lengthAdjust="spacing" xml:space="preserve"> │  ╭AI────────────────────╮                       </text><text x="0" y="206" font-family="ui-monospace, SFMono-Regular, Menlo, Consolas, 'DejaVu Sans Mono', monospace" font-size="13" fill="#d0d0d0" textLength="640" lengthAdjust="spacing" xml:space="preserve">│                             │  │paused                │                       </text><text x="0" y="222" font-family="ui-monospace, SFMono-Regular, Menlo, Consolas, 'DejaVu Sans Mono', monospace" font-size="13" fill="#d0d0d0" textLength="640" lengthAdjust="spacing" xml:space="preserve">│                             │  │depth 2               │                       </text><text x="0" y="238" font-family="ui-monospace, SFMono-Regular, Menlo, Consolas, 'DejaVu Sans Mono', monospace" font-size="13" fill="#d0d0d0" textLength="640" lengthAdjust="spacing" xml:space="preserve">│                             │  │last: LEFT            │                       </text><text x="0" y="254" font-family="ui-monospace, SFMono-Regular, Menlo, Consolas, 'DejaVu Sans Mono', monospace" font-size="13" fill="#d0d0d0" textLength="16" lengthAdjust="spacing" xml:space="preserve">│ </text><text x="16" y="254" font-family="ui-monospace, SFMono-Regular, Menlo, Consolas, 'DejaVu Sans Mono', monospace" font-size="13" fill="rgb(249,246,242)" textLength="48" lengthAdjust="spacing" xml:space="preserve" font-weight="bold"> 2048 </text><text x="72" y="254" font-family="ui-monospace, SFMono-Regular, Menlo, Consolas, 'DejaVu Sans Mono', monospace" font-size="13" fill="rgb(249,246,242)" textLength="48" lengthAdjust="spacing" xml:space="preserve" font-weight="bold"> 128  </text><text x="128" y="254" font-family="ui-monospace, SFMono-Regular, Menlo, Consolas, 'DejaVu Sans Mono', monospace" font-size="13" fill="rgb(119,110,101)" textLength="48" lengthAdjust="spacing" xml:space="preserve" font-weight="bold">  4   </text><text x="232" y="254" font-family="ui-monospace, SFMono-Regular, Menlo, Consolas, 'DejaVu Sans Mono', monospace" font-size="13" fill="#d0d0d0" textLength="408" lengthAdjust="spacing" xml:space="preserve"> │  │                      │                       </text><text x="0" y="270" font-family="ui-monospace, SFMono-Regular, Menlo, Consolas, 'DejaVu Sans Mono', monospace" font-size="13" fill="#d0d0d0" textLength="640" lengthAdjust="spacing" xml:space="preserve">│                             │  ╰──────────────────────╯                       </text><text x="0" y="286" font-family="ui-monospace, SFMono-Regular, Menlo, Consolas, 'DejaVu Sans Mono', monospace" font-size="13" fill="#d0d0d0" textLength="640" lengthAdjust="spacing" xml:space="preserve">│                             │                                                 </text><text x="0" y="302" font-family="ui-monospace, SFMono-Regular, Menlo, Consolas, 'DejaVu Sans Mono', monospace" font-size="13" fill="#d0d0d0" textLength="640" lengthAdjust="spacing" xml:space="preserve">╰─────────────2048! keep going╯                                                 </text><text x="0" y="334" font-family="ui-monospace, SFMono-Regular, Menlo, Consolas, 'DejaVu Sans Mono', monospace" font-size="13" fill="#d0d0d0" textLength="640" lengthAdjust="spacing" xml:space="preserve">Move: ↑↓←→ | AI: a | Step: s | New: n | Quit: q                                 </text></svg>